PathFileType	4	(X/Y/Z)	 s08c0401.trc
DataRate	CameraRate	NumFrames	NumMarkers	Units	OrigDataRate	OrigDataStartFrame	OrigNumFrames
200	200	5	50	mm	200	1501	2000
Frame#	Time	racr			lacr			c7			jug			rlel			rdr			llel			ldr			s2			lic			ric			lasi			rasi			rpsi			lpsi			rgt			lgt			rth1			rth2			rth3			rth4			rlfc			rmfc			rsh1			rsh2			rsh3			rsh4			rlmal			rmmal			rcal			rtoe			rmt5			lth1			lth2			lth4			lth3			llfc			lmfc			llmal			lmmal			lcal			lmt5			lsh1			lsh2			lsh3			lsh4			ltoe			SBIKE			LBIKE			RBIKE			
		X1	Y1	Z1	X2	Y2	Z2	X3	Y3	Z3	X4	Y4	Z4	X5	Y5	Z5	X6	Y6	Z6	X7	Y7	Z7	X8	Y8	Z8	X9	Y9	Z9	X10	Y10	Z10	X11	Y11	Z11	X12	Y12	Z12	X13	Y13	Z13	X14	Y14	Z14	X15	Y15	Z15	X16	Y16	Z16	X17	Y17	Z17	X18	Y18	Z18	X19	Y19	Z19	X20	Y20	Z20	X21	Y21	Z21	X22	Y22	Z22	X23	Y23	Z23	X24	Y24	Z24	X25	Y25	Z25	X26	Y26	Z26	X27	Y27	Z27	X28	Y28	Z28	X29	Y29	Z29	X30	Y30	Z30	X31	Y31	Z31	X32	Y32	Z32	X33	Y33	Z33	X34	Y34	Z34	X35	Y35	Z35	X36	Y36	Z36	X37	Y37	Z37	X38	Y38	Z38	X39	Y39	Z39	X40	Y40	Z40	X41	Y41	Z41	X42	Y42	Z42	X43	Y43	Z43	X44	Y44	Z44	X45	Y45	Z45	X46	Y46	Z46	X47	Y47	Z47	X48	Y48	Z48	X49	Y49	Z49	X50	Y50	Z50	
1501	7.5050	911.126650	1330.464232	-33.201253	847.789028	1386.504220	-363.153267	887.579859	1410.104037	-178.996168	814.278409	1269.958203	-200.541189	719.676632	1163.666683	124.625396	781.075211	940.903142	-29.527713	708.857927	1183.575320	-500.814146	793.335301	931.826051	-408.064608	304.926001	1289.316069	-230.141864	478.013278	1271.357659	-361.522786	438.863851	1254.249652	-47.970646	483.263723	1209.253152	-326.304030	460.701778	1205.271902	-85.472128	334.853234	1321.859554	-171.658914	348.863408	1327.676921	-266.162310	342.568711	1162.808808	-37.531862	404.912924	1152.868103	-408.580771	435.952507	1015.559336	-22.990876	499.988643	954.209449	-19.951000	525.154803	871.379766	-27.889215	531.796426	973.378101	-23.329154	582.720659	763.923211	-39.699275	573.608059	756.843000	-151.887651	495.804253	662.438513	-17.373958	480.167944	575.392811	-36.402080	424.198647	510.852231	-46.591883	511.183922	566.029797	-61.377470	366.946306	404.954586	-60.784787	392.425771	422.748799	-146.607405	283.648090	391.719462	-109.664823	571.295450	323.896883	-90.183559	475.736050	309.564421	-28.953011	455.672924	1021.292072	-406.878133	500.727626	946.979843	-398.288326	532.523085	956.999496	-384.292929	503.892130	857.797878	-399.132177	498.769396	725.344820	-388.151362	480.608927	701.929097	-281.274524	168.782819	458.937878	-404.477981	198.864533	446.365678	-320.065602	124.735353	502.199520	-360.423537	154.065319	288.298044	-415.308868	401.501416	637.793861	-414.459443	348.942936	571.868718	-401.114028	268.601244	534.385304	-406.055950	361.905604	556.339809	-364.435075	212.455041	225.997048	-344.748520	-132.845984	946.466357	-219.621374	27.013723	85.624854	-426.416880	18.697060	80.693281	-27.952517	
1502	7.5100	911.131747	1330.798416	-35.033439	846.387232	1386.715855	-365.336395	887.008696	1410.980516	-181.160664	814.189674	1270.619874	-203.133984	719.939089	1163.937628	122.742085	781.332657	940.938482	-28.788373	707.768601	1182.048999	-499.905436	793.139418	933.718855	-412.069007	304.232269	1289.073525	-230.037086	477.747087	1272.099210	-360.543273	438.652290	1252.952589	-47.104982	483.650983	1210.222633	-325.009731	459.984468	1203.629445	-84.192444	334.573538	1320.002645	-169.171657	348.299419	1327.095562	-264.368515	340.755264	1160.742436	-38.260849	407.481903	1154.034507	-408.446623	432.613905	1012.002293	-23.683498	495.240355	949.470490	-20.448806	518.974385	866.201211	-28.950992	527.516134	968.031628	-23.544640	575.249792	758.099780	-40.754736	566.637644	749.687946	-153.121754	490.288680	654.236163	-17.238066	476.065502	566.633336	-37.609125	421.308201	501.491738	-46.738826	507.179500	558.274687	-61.757479	366.055321	394.239190	-60.416702	390.324786	411.801728	-146.289651	282.921939	381.049850	-109.401141	570.621844	312.652597	-90.425596	475.083653	298.440494	-29.096217	459.127858	1022.951328	-406.422704	505.119395	949.241696	-397.363865	536.857556	959.768894	-383.464810	509.312182	860.100902	-397.515238	506.062835	728.227210	-385.335744	486.728483	705.320905	-278.346664	171.171958	469.203094	-403.938972	200.773305	456.043116	-319.530104	127.238890	512.924125	-360.271044	154.637986	298.721320	-415.111449	407.818113	642.716552	-412.155109	353.926787	578.067651	-399.413965	272.679996	542.252053	-404.621061	366.208776	562.141947	-362.348452	212.597729	235.848441	-344.697133	-132.880450	946.403240	-219.678708	26.993034	85.515503	-426.386896	18.667108	80.562403	-28.011033	
1503	7.5150	911.065622	1331.421379	-36.627754	844.999227	1386.920653	-367.792486	886.477486	1411.910193	-183.472249	814.027276	1271.211044	-205.454532	720.100964	1164.442454	120.915528	781.606461	940.951048	-27.957426	706.618457	1180.665569	-499.269430	792.978345	933.442696	-411.854378	303.751758	1288.441149	-230.273525	477.266976	1272.428713	-359.722883	438.632697	1251.401515	-46.385611	483.854488	1210.854565	-324.005002	459.500519	1201.762274	-82.883832	334.194772	1318.181466	-168.333653	347.550495	1326.819102	-263.797546	339.334757	1158.307948	-38.947915	409.692757	1154.972053	-408.182296	429.244750	1008.123580	-24.293758	490.375665	944.785267	-20.095315	512.282158	860.200386	-30.353776	523.290898	962.088088	-24.339996	567.762372	751.657681	-41.942857	559.088428	742.597714	-154.059732	484.627877	645.827807	-17.679066	471.886547	558.040835	-38.062978	418.336440	491.844069	-46.758976	502.792459	549.855879	-63.014557	364.548204	383.757161	-59.665487	389.741904	402.068421	-145.220884	281.676582	370.556416	-108.748575	569.308684	301.296871	-90.767129	473.792561	287.264298	-29.216486	461.933271	1024.344376	-406.374362	508.969114	951.285393	-396.859616	540.600394	962.318854	-382.959000	514.162482	862.354613	-396.243070	513.318160	731.113280	-382.697536	492.498218	708.524258	-275.482243	173.721170	479.513173	-403.402077	202.921190	465.818483	-318.882274	129.869022	523.485235	-359.890425	156.009607	309.161519	-415.090907	413.915334	648.036155	-410.125096	358.311878	584.548044	-397.487151	276.768807	550.215823	-403.283649	370.586431	568.156196	-360.585309	213.438201	245.780686	-344.540859	-132.963080	946.277187	-219.838773	26.968164	85.404638	-426.420800	18.582027	80.432157	-28.079494	
1504	7.5200	910.915816	1332.178712	-38.269001	843.740891	1386.978673	-370.320716	886.007050	1412.987469	-185.795456	813.794148	1271.731265	-207.522088	720.222222	1165.169328	119.178093	781.796920	940.907358	-27.138851	705.078724	1179.057915	-498.914782	792.805265	933.336025	-411.677080	303.249954	1287.753409	-229.507523	476.440665	1272.516886	-358.904771	438.763695	1249.714830	-45.830023	483.974535	1211.327093	-322.936035	459.192475	1199.368955	-81.366842	334.022978	1316.255734	-166.391552	346.701531	1326.448507	-263.423360	338.210951	1155.590308	-39.476795	411.423049	1155.790669	-407.863655	425.848995	1003.751426	-25.004972	485.921285	938.393440	-22.630888	505.563929	854.111039	-31.705117	518.762126	955.665712	-25.088384	559.248888	744.953223	-43.222801	549.752858	735.594751	-155.849144	478.803615	637.394966	-18.647032	467.532018	549.241574	-38.683831	415.152064	482.143505	-46.688901	498.122499	542.192997	-64.090237	362.540956	373.456152	-58.891343	386.168363	391.267638	-145.145902	279.847377	360.352977	-107.909425	567.323802	290.151310	-91.147348	471.984968	276.284541	-29.389501	464.063066	1025.451550	-406.503654	512.231190	953.192185	-396.489689	543.568423	964.780043	-382.140034	518.748165	864.319141	-395.480274	520.286170	734.191825	-380.036657	497.058214	711.457267	-273.398077	176.539856	489.773980	-402.884745	205.121797	475.577686	-318.516777	132.638685	533.880894	-359.600658	157.941845	319.514963	-414.920931	419.720085	653.914114	-408.143025	363.221438	591.109327	-396.027512	280.861519	558.430392	-402.119536	375.296109	573.769989	-358.326569	215.164196	255.994427	-344.530956	-133.139256	946.175031	-220.066676	26.937962	85.240209	-426.472029	18.603218	80.512082	-27.994076	
1505	7.5250	911.938060	1332.939283	-42.973595	842.597567	1386.938551	-373.045705	885.614035	1413.942383	-188.320280	813.553168	1272.160814	-209.406830	720.354356	1166.116435	117.484930	781.945576	940.813504	-26.196151	703.406442	1177.805838	-498.883971	792.553010	933.361983	-411.535973	302.959555	1286.555027	-228.745397	475.359995	1272.408557	-358.075871	438.943475	1248.010155	-45.223628	483.828982	1211.548613	-322.009363	459.034346	1196.706972	-79.945927	333.865610	1314.436092	-165.319445	346.077391	1325.973373	-263.211744	337.267034	1152.383867	-40.232097	412.591551	1156.379409	-407.555236	422.173020	999.146207	-25.775207	480.804529	932.309409	-23.445184	498.577355	847.686902	-32.978869	514.020538	948.723668	-25.720251	550.584442	738.031202	-44.873386	542.165505	728.493455	-156.197374	472.611365	629.030945	-19.874373	462.832509	540.647495	-37.731444	411.689717	472.475230	-46.759606	492.954522	534.262184	-65.137920	360.121894	363.298981	-58.341197	383.543784	382.159597	-144.093805	277.444184	350.447850	-107.248874	564.844466	278.813315	-91.540051	469.465183	265.355519	-29.599698	465.727543	1026.304640	-406.649819	515.048985	955.037575	-395.825291	545.870116	967.097462	-380.741741	523.167261	866.301195	-394.857906	527.245805	737.288842	-377.391902	505.013531	714.908009	-270.195596	179.552667	500.038399	-402.434923	208.149178	485.508785	-317.436729	135.606095	544.134274	-359.337941	160.563184	329.836497	-414.858016	425.971754	659.497942	-406.018995	368.317652	597.902962	-394.509977	285.350018	566.645224	-400.921901	380.084633	580.536236	-358.072406	217.706472	266.206725	-344.437159	-133.362709	946.058164	-220.357400	26.856939	85.040707	-426.448878	18.579790	80.528393	-27.977312	
